<svg width="21" height="20" viewBox="0 0 21 20" fill="none" xmlns="http://www.w3.org/2000/svg">
<path fill-rule="evenodd" clip-rule="evenodd" d="M4.66647 2.70837C2.94058 2.70837 1.54147 4.10748 1.54147 5.83337V14.1667C1.54147 15.8926 2.94058 17.2917 4.66647 17.2917H16.3331C18.059 17.2917 19.4581 15.8926 19.4581 14.1667V6.26479C19.4584 6.25457 19.4584 6.24434 19.4581 6.2341V5.83337C19.4581 4.10748 18.059 2.70837 16.3331 2.70837H4.66647ZM18.2081 5.89622V5.83337C18.2081 4.79784 17.3687 3.95837 16.3331 3.95837H4.66647C3.63094 3.95837 2.79147 4.79784 2.79147 5.83337V5.89611L9.05287 9.65295C9.94354 10.1874 11.0562 10.1874 11.9469 9.65295L18.2081 5.89622ZM2.79147 7.35385V14.1667C2.79147 15.2022 3.63094 16.0417 4.66647 16.0417H16.3331C17.3687 16.0417 18.2081 15.2022 18.2081 14.1667V7.35396L12.59 10.7248C11.3035 11.4967 9.69628 11.4967 8.40976 10.7248L2.79147 7.35385Z" fill="#13353F"/>
</svg>
