<svg width="19" height="18" viewBox="0 0 19 18" fill="none" xmlns="http://www.w3.org/2000/svg">
<path fill-rule="evenodd" clip-rule="evenodd" d="M7.81494 0.0419922C4.01798 0.0419922 0.939941 3.12003 0.939941 6.91699C0.939941 10.7139 4.01798 13.792 7.81494 13.792C9.48838 13.792 11.0222 13.1941 12.2144 12.2003L16.9563 16.9423C17.2004 17.1863 17.5961 17.1863 17.8402 16.9423C18.0843 16.6982 18.0843 16.3025 17.8402 16.0584L13.0982 11.3164C14.092 10.1242 14.6899 8.59043 14.6899 6.91699C14.6899 3.12003 11.6119 0.0419922 7.81494 0.0419922ZM2.18994 6.91699C2.18994 3.81039 4.70834 1.29199 7.81494 1.29199C10.9215 1.29199 13.4399 3.81039 13.4399 6.91699C13.4399 10.0236 10.9215 12.542 7.81494 12.542C4.70834 12.542 2.18994 10.0236 2.18994 6.91699Z" fill="white"/>
</svg>
