<?xml version="1.0" encoding="utf-8"?><svg xmlns="http://www.w3.org/2000/svg" xmlns:xlink="http://www.w3.org/1999/xlink"><symbol viewBox="0 0 16 18" id="addresses" xmlns="http://www.w3.org/2000/svg"><path fill-rule="evenodd" clip-rule="evenodd" d="M7.889 1.292a6.042 6.042 0 00-6.042 6.042c0 .756.351 1.725.961 2.809.6 1.066 1.41 2.17 2.231 3.176a42.837 42.837 0 002.85 3.14 42.83 42.83 0 002.85-3.14c.82-1.005 1.63-2.11 2.23-3.176.61-1.084.961-2.053.961-2.81a6.042 6.042 0 00-6.04-6.04zm0 16.042l-.43.453-.006-.005-.015-.015a12.503 12.503 0 01-.275-.267 44.079 44.079 0 01-3.092-3.39c-.845-1.035-1.702-2.2-2.352-3.354C1.08 9.62.597 8.42.597 7.334a7.292 7.292 0 1114.583 0c0 1.085-.482 2.285-1.122 3.422-.65 1.154-1.507 2.32-2.352 3.354a44.078 44.078 0 01-3.366 3.657l-.015.015-.005.004-.001.001-.43-.453zm0 0l.43.453a.625.625 0 01-.86 0l.43-.453z"/><path fill-rule="evenodd" clip-rule="evenodd" d="M7.889 5.875a1.458 1.458 0 100 2.917 1.458 1.458 0 000-2.917zM5.18 7.334a2.708 2.708 0 115.417 0 2.708 2.708 0 01-5.417 0z"/></symbol><symbol viewBox="0 0 19 18" id="analysis" xmlns="http://www.w3.org/2000/svg"><path d="M8.515 16.89a.625.625 0 00.883.885c1.819-1.816 2.202-3.68 1.983-5.515a.625.625 0 10-1.241.148c.178 1.498-.108 2.967-1.625 4.482zM8.398 5.741a.625.625 0 001.24-.148c-.178-1.498.108-2.968 1.626-4.483a.625.625 0 00-.883-.884C8.56 2.042 8.179 3.906 8.398 5.74zm-6.401 4.62a.625.625 0 11-.883-.885c1.506-1.503 3.054-2.032 4.61-2.03 1.491 0 2.925.48 4.323.948l.04.013c1.41.472 2.7.897 3.969.898 1.22 0 2.452-.394 3.726-1.666a.625.625 0 01.883.885c-1.506 1.503-3.054 2.032-4.61 2.03-1.491 0-2.925-.48-4.324-.948l-.04-.013c-1.41-.471-2.699-.896-3.968-.897-1.221-.001-2.452.393-3.726 1.665zm14.694-3.633a.625.625 0 01-.883.012L12.162 3.2a.625.625 0 01.87-.897l3.646 3.542c.248.24.254.636.013.884z"/><path d="M13.249 7.411a.625.625 0 00.884-.884l-1.77-1.77a.625.625 0 00-.885.883l1.771 1.771zm-4.897 5.886a.625.625 0 01-.884 0l-1.875-1.875a.625.625 0 01.884-.884l1.875 1.875a.625.625 0 010 .884zm-4.375-2.03a.625.625 0 10-.884.884l3.541 3.541a.625.625 0 10.884-.883l-3.541-3.542z"/></symbol><symbol viewBox="0 0 71 63" id="app-feature-5" xmlns="http://www.w3.org/2000/svg"><defs><path id="aca" d="M0 0h24v24H0z"/><path id="acb" d="M6 6h12v12H6z"/></defs><g transform="translate(-2 -5)" fill-rule="evenodd"><path d="M8.527 43.966A12.36 12.36 0 013 33.647c0-6.822 5.498-12.353 12.28-12.353.247 0 .492.007.736.022C17.15 12.672 24.504 6 33.406 6c7.041 0 13.113 4.172 15.906 10.193a10.44 10.44 0 013.976-.781c5.813 0 10.526 4.74 10.526 10.588 0 .811-.091 1.602-.263 2.36A8.824 8.824 0 0163.176 46H14.163a8.788 8.788 0 01-5.636-2.034z"/><path d="M38 55v10h-2V55zm0-27v10h-2V28z"/><circle cx="37" cy="26" r="2"/><g transform="rotate(90 -7 56)"><path d="M3 3v10H1V3z"/><circle cx="2" cy="2" r="2"/></g><g transform="matrix(0 1 1 0 14 55)"><path d="M3 3v10H1V3z"/><circle cx="2" cy="2" r="2"/></g><g transform="translate(25 34)"><use xlink:href="#aca"/><path d="M1 1h22v22H1z"/></g><g transform="translate(25 34)"><use xlink:href="#acb"/><path d="M7 7h10v10H7z"/></g></g></symbol><symbol viewBox="0 0 68 68" id="arrow" xmlns="http://www.w3.org/2000/svg"><circle cx="34" cy="34" r="33"/><path d="M24.046 34H43.83m-6.844-6.969L43.956 34l-6.969 6.968"/></symbol><symbol viewBox="0 0 20 16" id="arrow_back" xmlns="http://www.w3.org/2000/svg"><path d="M19.854 8a.688.688 0 00-.687-.688H2.493L7.736 2.07a.687.687 0 10-.972-.972L.347 7.514a.687.687 0 000 .972l6.417 6.416a.687.687 0 10.972-.972L2.493 8.687h16.674c.38 0 .687-.308.687-.687z"/></symbol><symbol viewBox="0 0 18 20" id="attention_bell" xmlns="http://www.w3.org/2000/svg"><path fill-rule="evenodd" clip-rule="evenodd" d="M8.963.25c.393 0 .712.32.712.713H8.25c0-.394.32-.713.713-.713zm.712 1.346V.963H8.25v.633A7.588 7.588 0 001.375 9.15v4.125a.713.713 0 101.425 0V9.15a6.162 6.162 0 0112.325 0v4.125a.713.713 0 101.425 0V9.15a7.588 7.588 0 00-6.875-7.554z"/><path fill-rule="evenodd" clip-rule="evenodd" d="M2.228 13.988a.803.803 0 00-.803.803v.11c0 .503.409.912.913.912h13.25a.912.912 0 00.912-.913v-.11a.803.803 0 00-.803-.802v-1.425c1.23 0 2.228.997 2.228 2.228v.11a2.338 2.338 0 01-2.337 2.337H2.338A2.338 2.338 0 010 14.9v-.11c0-1.23.998-2.227 2.228-2.227v1.425z"/><path fill-rule="evenodd" clip-rule="evenodd" d="M6.588 15.938c.393 0 .712.319.712.712a1.662 1.662 0 103.325 0 .713.713 0 011.425 0 3.088 3.088 0 11-6.175 0c0-.393.32-.712.713-.712z"/></symbol><symbol viewBox="0 0 20 18" id="burger" xmlns="http://www.w3.org/2000/svg"><path d="M1 9h18M1 1h18M1 17h18" stroke-width="2" fill-rule="evenodd" stroke-linecap="square"/></symbol><symbol viewBox="0 0 22 14" id="bvi" xmlns="http://www.w3.org/2000/svg"><path fill-rule="evenodd" clip-rule="evenodd" d="M11 4.25a2.75 2.75 0 100 5.5 2.75 2.75 0 000-5.5zM9.75 7a1.25 1.25 0 112.5 0 1.25 1.25 0 01-2.5 0z"/><path fill-rule="evenodd" clip-rule="evenodd" d="M21.576 6.52L21 7l.576.48v.001l-.002.001-.003.005a2.322 2.322 0 00-.06.07 22.873 22.873 0 01-.833.904 25.706 25.706 0 01-2.335 2.125C16.441 12.108 13.768 13.75 11 13.75s-5.44-1.642-7.344-3.164a25.68 25.68 0 01-2.99-2.828 14.937 14.937 0 01-.224-.256L.43 7.487l-.003-.004-.002-.002.576-.48-.576.48a.75.75 0 010-.96L1 7l-.576-.48.002-.003.003-.004a4.698 4.698 0 01.06-.07 22.846 22.846 0 01.833-.904 25.685 25.685 0 012.334-2.125C5.56 1.892 8.231.25 11 .25c2.768 0 5.44 1.642 7.343 3.164a25.699 25.699 0 012.992 2.829 15.708 15.708 0 01.236.27l.003.005.002.001zm-19.179.895A22.7 22.7 0 012.004 7a24.186 24.186 0 012.59-2.415C6.44 3.109 8.769 1.75 11 1.75c2.232 0 4.56 1.358 6.407 2.836A24.18 24.18 0 0119.997 7a24.18 24.18 0 01-2.59 2.414C15.559 10.892 13.23 12.25 11 12.25c-2.232 0-4.56-1.358-6.407-2.835a24.182 24.182 0 01-2.196-2z"/><path d="M21 7l.576-.48a.75.75 0 010 .96L21 7z"/></symbol><symbol viewBox="0 0 22 20" id="cart_new" xmlns="http://www.w3.org/2000/svg"><path fill-rule="evenodd" clip-rule="evenodd" d="M.5 1a.75.75 0 01.75-.75H4c.33 0 .62.215.717.53l1.375 4.47H21a.75.75 0 01.67 1.085l-4 8a.75.75 0 01-.67.415H8a.75.75 0 01-.717-.53L3.446 1.75H1.25A.75.75 0 01.5 1zm6.054 5.75l2 6.5h7.982l3.25-6.5H6.555z"/><path d="M8.25 18a1.25 1.25 0 11-2.5 0 1.25 1.25 0 012.5 0zm9 0a1.25 1.25 0 11-2.5 0 1.25 1.25 0 012.5 0z"/></symbol><symbol viewBox="0 0 17.414 12.801" id="check" xmlns="http://www.w3.org/2000/svg"><defs><style>.aja{fill:none;stroke:#ff6a13;stroke-miterlimit:10;stroke-width:2px}</style></defs><path class="aja" d="M.707 6.066l5.321 5.321L16.707.707"/></symbol><symbol viewBox="0 0 55 55" id="chip_copy_2" xmlns="http://www.w3.org/2000/svg"><g transform="translate(-8 -10)" stroke-width="2" fill-rule="evenodd"><circle cx="42" cy="31" r="20"/><path d="M39 19c-5.523 0-10 4.477-10 10M25.425 42.419L10.747 57.096a4 4 0 105.657 5.657L31.08 48.075l-5.656-5.656z"/></g></symbol><symbol viewBox="0 0 8 6" id="city_arrow" xmlns="http://www.w3.org/2000/svg"><path d="M1 1.5l3 3 3-3"/></symbol><symbol viewBox="0 0 55 65" id="clients-doctor" xmlns="http://www.w3.org/2000/svg"/><symbol viewBox="0 0 20 22" id="clip" xmlns="http://www.w3.org/2000/svg"><defs><path id="ana" d="M315.4 693.02c-2.33-1.58-2.84-4.92-1.14-7.46l7.85-11.62c.21-.33.63-.43.93-.22.3.2.36.62.14.94l-7.84 11.63c-1.27 1.89-.9 4.38.85 5.56 1.74 1.17 4.2.6 5.47-1.3l8.45-12.53c.76-1.13.54-2.61-.5-3.32-1.04-.7-2.5-.36-3.25.76l-8.48 12.56c-.26.39-.18.9.18 1.15.36.24.86.12 1.13-.27l8.48-12.58c.22-.33.64-.42.94-.22.3.2.36.62.14.94l-8.49 12.58c-.7 1.04-2.04 1.36-2.99.71-.95-.64-1.16-2-.46-3.04l8.47-12.56c1.19-1.76 3.48-2.3 5.12-1.2 1.63 1.1 1.99 3.45.79 5.22l-8.45 12.53c-1.71 2.53-5 3.31-7.34 1.74"/></defs><use xlink:href="#ana" transform="translate(-313 -672)"/></symbol><symbol viewBox="0 0 14 14" id="clock" xmlns="http://www.w3.org/2000/svg"><g transform="translate(1 1)" fill-rule="evenodd"><circle cx="6" cy="6" r="6"/><path d="M5 3h1v4H5z"/><path d="M5 6h3v1H5z"/></g></symbol><symbol viewBox="0 0 20 20" id="colba" xmlns="http://www.w3.org/2000/svg"><path fill-rule="evenodd" clip-rule="evenodd" d="M5.35 1.017c0-.38.308-.688.688-.688h7.929a.687.687 0 110 1.375H6.038a.687.687 0 01-.687-.687z"/><path fill-rule="evenodd" clip-rule="evenodd" d="M6.143 1.026c0-.38.308-.687.688-.687h6.343a.687.687 0 01.688.687h-.688.688V9.01a.687.687 0 11-1.375 0V1.714H7.518v7.295a.688.688 0 01-1.375 0V1.026z"/><path fill-rule="evenodd" clip-rule="evenodd" d="M7.189 8.507a.686.686 0 01.202.95l-4.947 7.627a.458.458 0 00.385.708h14.344a.458.458 0 00.384-.708l-.513-.792a.688.688 0 011.153-.748l.514.792c.791 1.22-.084 2.83-1.538 2.83H2.829c-1.454 0-2.33-1.61-1.539-2.83l4.948-7.627a.688.688 0 01.95-.202zm5.624 0a.687.687 0 01.95.202l.67 1.032a.688.688 0 01-1.154.748l-.669-1.031a.687.687 0 01.203-.951z"/><path fill-rule="evenodd" clip-rule="evenodd" d="M18.164 10.774a.688.688 0 010 .973l-3.208 3.208a.688.688 0 01-.973 0l-1.604-1.604a.688.688 0 11.972-.972l1.118 1.118 2.723-2.723a.688.688 0 01.972 0z"/></symbol><symbol viewBox="0 0 59 59" id="driver-circle" xmlns="http://www.w3.org/2000/svg"><g stroke-width="2" fill-rule="evenodd"><path d="M29.125 57.25c15.533 0 28.125-12.592 28.125-28.125S44.658 1 29.125 1 1 13.592 1 29.125 13.592 57.25 29.125 57.25z"/><path d="M29.125 31.818a2.693 2.693 0 100-5.387 2.693 2.693 0 000 5.387zm0-25.603c-10.622 0-19.564 7.162-22.28 16.918 5.275-2.827 13.19-4.626 22.042-4.626 9.176 0 17.342 1.934 22.607 4.94C48.886 13.53 39.861 6.216 29.125 6.216zm4.206 42.755c0 1.047.11 2.07.291 3.066 9.731-1.919 17.265-9.939 18.461-19.91a17.17 17.17 0 00-1.81-.098c-9.357 0-16.942 7.585-16.942 16.942zM7.976 32.027c-.612 0-1.214.036-1.81.1 1.196 9.971 8.73 17.99 18.461 19.908.182-.995.291-2.017.291-3.066 0-9.357-7.585-16.942-16.942-16.942z"/></g></symbol><symbol viewBox="0 0 62 62" id="enter-1" xmlns="http://www.w3.org/2000/svg"><g fill-rule="evenodd"><path fill-rule="nonzero" d="M23 13v35.5a7.5 7.5 0 0015 0V13H23zm17-2v37.5a9.5 9.5 0 01-19 0V11h19z"/><path fill-rule="nonzero" d="M22 27v-2h17v2zM45 5v2H16V5h29zm0 2H16V5h29v2z"/><path d="M2 0h8v2H2v8H0V0h2zm58 0h-8v2h8v8h2V0h-2zm2 60v-8h-2v8h-8v2h10v-2zM0 60v-8h2v8h8v2H0v-2z"/></g></symbol><symbol viewBox="0 0 31 36" id="enter-2" xmlns="http://www.w3.org/2000/svg"><g stroke-width="2" fill-rule="evenodd"><path d="M22.214 7.593c0 5.034-2.862 11.237-6.393 11.237-3.53 0-6.393-6.62-6.393-11.237a6.393 6.393 0 1112.786 0z"/><path d="M12.629 17.103c0 2.96-2.4 5.051-5.358 5.051h-.174c-2.923 0-5.23 3.04-5.23 6.511v6.601m27.908.001v-6.602c0-2.088-1.473-6.51-5.403-6.51-2.96 0-5.358-2.093-5.358-5.052"/><path d="M6.974 30.906h-1.52v-1.871a2.628 2.628 0 015.256 0v1.87H9.235m-1.466-8.751s1.033 2.044.312 4.253m17.661 2.081a1.679 1.679 0 11-3.358 0 1.679 1.679 0 013.358 0zm-2.054-6.252c.466 1.027.892 2.98.494 4.578M9.498 8.164c4.365 0 8.226-1.93 9.652-2.938 0 0 .952 2.294 2.994 3.302m-.364 12.869l-5.875 6.001-5.568-5.749"/></g></symbol><symbol viewBox="0 0 33 33" id="enter-3" xmlns="http://www.w3.org/2000/svg"><g stroke-width="2" fill-rule="evenodd"><path d="M9.797 24.532L22.677 8.14m1.873 13.194a3.198 3.198 0 11-6.396 0 3.198 3.198 0 016.395 0zm-10.032-9.995a3.198 3.198 0 11-6.396-.001 3.198 3.198 0 016.396 0z"/><path d="M31.339 16.336c0 8.286-6.717 15.003-15.003 15.003-8.286 0-15.003-6.717-15.003-15.003 0-8.286 6.717-15.003 15.003-15.003 8.286 0 15.003 6.717 15.003 15.003z"/></g></symbol><symbol viewBox="0 0 31 35" id="enter-4" xmlns="http://www.w3.org/2000/svg"><g fill-rule="evenodd"><path d="M29.6 26.933V5.067a3.733 3.733 0 00-3.733-3.734H5.6a3.733 3.733 0 00-3.733 3.734v21.866"/><path d="M5.6 23.2a3.733 3.733 0 100 7.467h20.267a3.733 3.733 0 003.733-3.734M5.6 23.2h20.267a3.733 3.733 0 003.733-3.733v-14.4a3.733 3.733 0 00-3.733-3.734H5.6a3.733 3.733 0 00-3.733 3.734"/><path d="M5.6 26.933h20.267A3.733 3.733 0 0029.6 23.2m-8-12.267h-3.2v-3.2h-3.2v3.2H12v3.2h3.2v3.2h3.2v-3.2h3.2z"/><path fill-rule="nonzero" d="M5.067 1.333h1.067v22.4H5.067zM14.667 26.933H10.4v5.334l2.133-2 2.134 2z"/></g></symbol><symbol viewBox="0 0 16 20" id="header-map-bullet" xmlns="http://www.w3.org/2000/svg"><defs><path id="ava" d="M1132 19a8.1 8.1 0 00-8 8.18c0 4.59 3.89 7.61 8 11.82 4.11-4.2 8-7.23 8-11.82a8.1 8.1 0 00-8-8.18m0 10a2 2 0 110-4 2 2 0 010 4"/></defs><use xlink:href="#ava" transform="translate(-1124 -19)"/></symbol><symbol viewBox="0 0 16 18" id="home" xmlns="http://www.w3.org/2000/svg"><path fill-rule="evenodd" clip-rule="evenodd" d="M7.889.042c.178 0 .348.076.467.21l6.667 7.5a.625.625 0 01.158.415V16.5c0 .346-.28.625-.625.625h-4.167a.625.625 0 01-.625-.625v-4.97a1.46 1.46 0 00-.24-.61c-.202-.292-.63-.67-1.635-.67s-1.433.378-1.635.67a1.46 1.46 0 00-.24.61v4.97c0 .346-.28.625-.625.625H1.222a.625.625 0 01-.625-.625V8.167c0-.153.056-.3.158-.415l6.667-7.5a.625.625 0 01.467-.21zM5.389 11.5l-.624-.035v-.007a1.29 1.29 0 01.015-.129 2.708 2.708 0 01.447-1.123C5.677 9.56 6.498 9 7.889 9c1.39 0 2.213.56 2.662 1.206a2.706 2.706 0 01.458 1.212 1.516 1.516 0 01.003.04v.006c0 .001 0 .002-.623.036l.624-.034v4.409h2.918v-7.47L7.889 1.608 1.847 8.405v7.47h2.917v-4.409l.625.034z"/></symbol><symbol viewBox="0 0 40 40" id="icon-all-links-btn" xmlns="http://www.w3.org/2000/svg"><path d="M0 0h8v8H0V0zm16 0h8v8h-8V0zm16 0h8v8h-8V0zM0 16h8v8H0v-8zm16 0h8v8h-8v-8zm16 0h8v8h-8v-8zM0 32h8v8H0v-8zm16 0h8v8h-8v-8zm16 0h8v8h-8v-8z" fill-rule="evenodd"/></symbol><symbol viewBox="0 0 22 29" id="icon-analysis" xmlns="http://www.w3.org/2000/svg"><g fill-rule="evenodd"><g stroke-width="2"><path d="M16.484 24.93l-5.746-9.157v-2.87h2.006v-2.98H4.738v2.98h1.984v2.87l-5.45 9.156c-.772 1.337.192 3.01 1.736 3.01h11.74c1.543 0 2.507-1.673 1.736-3.01z"/><path d="M13.355 19.51c-1.476-.274-3.932.514-6.085 1.485-2.152.97-3.95.388-3.95.388"/></g><path d="M21.07 10.9a2.003 2.003 0 11-4.005 0 2.003 2.003 0 014.005 0zm-3.398-7.437a2.464 2.464 0 11-4.927-.001 2.464 2.464 0 014.927.001zM9.201 5.457a1.541 1.541 0 11-3.082 0 1.541 1.541 0 013.082 0z"/></g></symbol><symbol viewBox="0 0 20 16" id="icon-attention" xmlns="http://www.w3.org/2000/svg"><defs><path id="aza" d="M124 625l10 16h-20z"/><path id="azb" d="M123 636v-6h2v6z"/><path id="azc" d="M123 639v-2h2v2z"/></defs><use xlink:href="#aza" transform="translate(-114 -625)"/><use xlink:href="#azb" transform="translate(-114 -625)"/><use xlink:href="#azc" transform="translate(-114 -625)"/></symbol><symbol viewBox="0 0 24 16" id="icon-back" xmlns="http://www.w3.org/2000/svg"><g stroke-width="2" fill-rule="evenodd"><path d="M5.92 10.34L1.5 5.92 5.92 1.5"/><path d="M12.978 14.025h5.99a4.013 4.013 0 000-8.025H1.5"/></g></symbol><symbol style="background:#000" viewBox="0 0 18 18" id="icon-btn-reload" xmlns="http://www.w3.org/2000/svg"><g stroke-width="2" fill-rule="evenodd"><path d="M.915 13.697l1.036-2.349L2.988 9l2.21 1.304 2.213 1.304m7.575-2.616a6 6 0 00-6-5.992c-.729 0-1.426.137-2.072.375m0 0a6.014 6.014 0 00-2.838 2.183"/><path d="M2.987 8.978V9a6 6 0 006 6c.74 0 1.445-.14 2.1-.386a6.015 6.015 0 002.835-2.206m3.098-7.94l-1.01 2.266L14.997 9 12.79 7.866l-2.208-1.134"/></g></symbol><symbol viewBox="0 0 15 15" id="icon-btn-write" xmlns="http://www.w3.org/2000/svg"><defs><path id="bca" d="M13 10.98V16H1V3.03h4.03"/><path id="bcb" d="M7.12 13.99V.72h4.43v13.27z"/><path id="bcc" d="M6.92 4.3h4.63"/></defs><use fill-opacity="0" stroke-miterlimit="50" stroke-width="2" xlink:href="#bca" transform="translate(-1 -1)"/><use fill-opacity="0" stroke-miterlimit="50" stroke-width="2" xlink:href="#bcb" transform="rotate(45 10.707 5.293)"/><use fill-opacity="0" stroke-linecap="square" stroke-miterlimit="50" stroke-width="2" xlink:href="#bcc" transform="rotate(45 10.707 5.293)"/></symbol><symbol viewBox="0 0 40 40" id="icon-cart" xmlns="http://www.w3.org/2000/svg"><defs><path id="bda" d="M1170 50c-11.03 0-20-8.97-20-20s8.97-20 20-20 20 8.97 20 20-8.97 20-20 20zm0-38c-9.92 0-18 8.07-18 18s8.08 18 18 18 18-8.07 18-18-8.08-18-18-18zm-7.3 13h-1.7v-2h3l1.33 3H1177v5.5l-9.9 2.83A2 2 0 011166 38s1.1 0 0 0a2 2 0 11.77-3.85zm3.3 13zm.22-10l1.78 4 7-2v-2zm7.78 10a2 2 0 110-4 2 2 0 010 4s1.1 0 0 0z"/></defs><g transform="translate(-1150 -10)"><use xlink:href="#bda"/><use xlink:href="#bda"/></g></symbol><symbol viewBox="0 0 16 15" id="icon-cart-btn" xmlns="http://www.w3.org/2000/svg"><defs><path id="bea" d="M1 2h2.35l3.74 8.4.35.8.83-.24 7-2 .73-.2V5H5"/><path id="beb" d="M6 16a2 2 0 100-4 2 2 0 000 4"/><path id="bec" d="M14 16a2 2 0 100-4 2 2 0 000 4"/></defs><use fill-opacity="0" stroke-miterlimit="50" stroke-width="2" xlink:href="#bea" transform="translate(-1 -1)"/><use xlink:href="#beb" transform="translate(-1 -1)"/><use xlink:href="#bec" transform="translate(-1 -1)"/></symbol><symbol viewBox="0 0 40 40" id="icon-cart-check" xmlns="http://www.w3.org/2000/svg"><path d="M20 38c9.941 0 18-8.059 18-18S29.941 2 20 2 2 10.059 2 20s8.059 18 18 18zm0 2C8.954 40 0 31.046 0 20S8.954 0 20 0s20 8.954 20 20-8.954 20-20 20z"/><path d="M27.293 14.293l1.414 1.414-11.386 11.387-6.028-6.028 1.414-1.414 4.614 4.613z"/></symbol><symbol viewBox="0 0 23 23" id="icon-date" xmlns="http://www.w3.org/2000/svg"><defs><path id="bga" d="M312 1513.5a10.5 10.5 0 1121 0 10.5 10.5 0 01-21 0z"/><path id="bgb" d="M322 1514v-7h1v7z"/><path id="bgc" d="M322 1514v-1h6v1z"/></defs><use fill-opacity="0" stroke-miterlimit="50" xlink:href="#bga" transform="translate(-311 -1502)"/><use xlink:href="#bgb" transform="translate(-311 -1502)"/><use xlink:href="#bgc" transform="translate(-311 -1502)"/></symbol><symbol viewBox="0 0 16 18" id="icon-del" xmlns="http://www.w3.org/2000/svg"><g fill-rule="evenodd"><path d="M2 3h12v14H2zm4-2h4v1H6z"/><path d="M10 7v6H9V7zM6 7v6H5V7zM0 2h16v2H0z"/></g></symbol><symbol viewBox="0 0 18 18" id="icon-download" xmlns="http://www.w3.org/2000/svg"><defs><path id="bia" d="M451 575v-2h18v2z"/><path id="bib" d="M459 569v-12h2v12z"/><path id="bic" d="M455 565l5 5 5-5"/></defs><use xlink:href="#bia" transform="translate(-451 -557)"/><use xlink:href="#bib" transform="translate(-451 -557)"/><use fill-opacity="0" stroke-miterlimit="50" stroke-width="2" xlink:href="#bic" transform="translate(-451 -557)"/></symbol><symbol viewBox="0 0 512 512" id="icon-fb" xmlns="http://www.w3.org/2000/svg"><path d="M288 192v-38.1c0-17.2 3.8-25.9 30.5-25.9H352V64h-55.9c-68.5 0-91.1 31.4-91.1 85.3V192h-45v64h45v192h83V256h56.4l7.6-64h-64z"/></symbol><symbol viewBox="0 0 18 21" id="icon-filter" xmlns="http://www.w3.org/2000/svg"><defs><path id="bka" d="M330 732.7l-5.94 7.22-.08 4.46-4.02 3.62v-8.05L314 732.7"/><path id="bkb" d="M313 732c0-1.1 4.03-2 9-2s9 .9 9 2-4.03 2-9 2-9-.9-9-2z"/></defs><use fill-opacity="0" stroke-miterlimit="50" stroke-width="2" xlink:href="#bka" transform="translate(-313 -730)"/><use xlink:href="#bkb" transform="translate(-313 -730)"/></symbol><symbol viewBox="0 0 18 18" id="icon-fly" xmlns="http://www.w3.org/2000/svg"><path d="M16 2L9.29 16 2 8.394zM4 12v4l2-1.5zm0 2l5-5-5 5z" stroke-width="2" fill-rule="evenodd"/></symbol><symbol viewBox="0 0 21 13" id="icon-google" xmlns="http://www.w3.org/2000/svg"><defs><path id="bma" d="M455.13 865.84h3.17a4.04 4.04 0 11-1.1-4.33c.18.16.44.16.6 0l1.17-1.1a.44.44 0 000-.63 6.48 6.48 0 00-4.34-1.78 6.5 6.5 0 106.36 6.86l.01-1.49h-5.87c-.24 0-.44.2-.44.44v1.6c0 .24.2.43.44.43z"/><path id="bmb" d="M467.05 863.95v-1.57a.38.38 0 00-.39-.38h-1.32a.38.38 0 00-.39.38v1.57h-1.57a.38.38 0 00-.38.39v1.32c0 .21.17.39.38.39h1.57v1.57c0 .2.18.38.39.38h1.32c.21 0 .39-.17.39-.38v-1.57h1.57c.2 0 .38-.18.38-.39v-1.32a.38.38 0 00-.38-.39h-1.57z"/></defs><use xlink:href="#bma" transform="translate(-448 -858)"/><use xlink:href="#bmb" transform="translate(-448 -858)"/></symbol><symbol viewBox="0 0 20 20" id="icon-helpful-no" xmlns="http://www.w3.org/2000/svg"><path d="M17.516 12.274a27.968 27.968 0 01-3.98-.169c.443 1.79 1.032 4.274 1.243 5.432.337 1.831-2.274 2.484-2.842 1.052-.569-1.431-2.274-6.294-5.474-7.178a2.192 2.192 0 01-.316-.127l-.02-9.79S12.378.19 16.02.19c1.832 0 3.074.316 3.263 2.064.253 2.336.548 5.284.674 7.01.168 2.19-.505 2.884-2.442 3.01m-13.789-.253H1.053A1.053 1.053 0 010 10.968v-9.2C0 1.188.471.716 1.053.716h2.673c.582 0 1.053.471 1.053 1.052v9.2c0 .582-.471 1.053-1.053 1.053"/></symbol><symbol viewBox="0 0 20 20" id="icon-helpful-yes" xmlns="http://www.w3.org/2000/svg"><path d="M17.516 7.095a27.968 27.968 0 00-3.98.168c.443-1.79 1.032-4.274 1.243-5.431C15.116 0 12.505-.653 11.937.779c-.569 1.432-2.274 6.295-5.474 7.179a2.192 2.192 0 00-.316.126l-.02 9.79s6.252 1.305 9.894 1.305c1.832 0 3.074-.316 3.263-2.063.253-2.337.548-5.284.674-7.01.168-2.19-.505-2.885-2.442-3.011m-13.79.252H1.053C.47 7.347 0 7.82 0 8.4v9.2c0 .581.471 1.053 1.053 1.053h2.673c.582 0 1.053-.472 1.053-1.053V8.4c0-.581-.471-1.053-1.053-1.053"/></symbol><symbol viewBox="0 0 46 46" id="icon-hide-links-btn" xmlns="http://www.w3.org/2000/svg"><path d="M1.5 1.5h43v43h-43zM14 32l18-18m0 18L14 14" stroke-width="3" fill-rule="evenodd"/></symbol><symbol viewBox="0 0 21 17" id="icon-house" xmlns="http://www.w3.org/2000/svg"><defs><path id="bqa" d="M902.03 1156.1v6.9H889v-12"/><path id="bqb" d="M887 1154.44l9-8.44 3.65 3.58"/><path id="bqc" d="M905.93 1153.93h-2.03v1.98h-1.99v-1.98h-1.99v-2h2v-1.98h1.98v1.98h2.03zm-7.93-.96a4.97 4.97 0 109.93 0 4.97 4.97 0 00-9.93 0z"/><path id="bqd" d="M892 1163h4v-5h-4z"/></defs><use fill-opacity="0" stroke-linecap="round" stroke-linejoin="round" stroke-miterlimit="50" xlink:href="#bqa" transform="translate(-887 -1146)"/><use fill-opacity="0" stroke-linecap="round" stroke-linejoin="round" stroke-miterlimit="50" xlink:href="#bqb" transform="translate(-887 -1146)"/><use xlink:href="#bqc" transform="translate(-887 -1146)"/><use xlink:href="#bqd" transform="translate(-887 -1146)"/></symbol><symbol viewBox="0 0 56.7 56.7" id="icon-instagram" xmlns="http://www.w3.org/2000/svg"><path d="M28.2 16.7c-7 0-12.8 5.7-12.8 12.8s5.7 12.8 12.8 12.8S41 36.5 41 29.5s-5.8-12.8-12.8-12.8zm0 21c-4.5 0-8.2-3.7-8.2-8.2s3.7-8.2 8.2-8.2 8.2 3.7 8.2 8.2-3.7 8.2-8.2 8.2z"/><circle cx="41.5" cy="16.4" r="2.9"/><path d="M49 8.9c-2.6-2.7-6.3-4.1-10.5-4.1H17.9c-8.7 0-14.5 5.8-14.5 14.5v20.5c0 4.3 1.4 8 4.2 10.7 2.7 2.6 6.3 3.9 10.4 3.9h20.4c4.3 0 7.9-1.4 10.5-3.9 2.7-2.6 4.1-6.3 4.1-10.6V19.3c0-4.2-1.4-7.8-4-10.4zm-.4 31c0 3.1-1.1 5.6-2.9 7.3s-4.3 2.6-7.3 2.6H18c-3 0-5.5-.9-7.3-2.6C8.9 45.4 8 42.9 8 39.8V19.3c0-3 .9-5.5 2.7-7.3 1.7-1.7 4.3-2.6 7.3-2.6h20.6c3 0 5.5.9 7.3 2.7 1.7 1.8 2.7 4.3 2.7 7.2v20.6z"/></symbol><symbol viewBox="0 0 29 24" id="icon-learning" xmlns="http://www.w3.org/2000/svg"><g fill-rule="evenodd"><path d="M.86 9L14 16.565 27.14 9 14 1.435.86 9zM7 19l7 4 7-4"/><path d="M7 13h1v6H7zm13 0h1v6h-1zm6-5h1v8h-1z"/><path d="M24.379 16.5l2.121-2.121 2.121 2.121-2.121 2.121z"/></g></symbol><symbol viewBox="0 0 18 17" id="icon-list" xmlns="http://www.w3.org/2000/svg"><g stroke-width="2" fill-rule="evenodd"><path d="M13.006 10.985v5.023H1V3.034h4.026"/><path d="M12.899 1.369l2.978 2.902-8.052 7.718H4.833V9.055zM10.077 3.53l3.271 3.27"/></g></symbol><symbol viewBox="0 0 10 13" id="icon-lock" xmlns="http://www.w3.org/2000/svg"><g stroke-width="2" fill-rule="evenodd" stroke-linecap="round"><path d="M1 11.988h8v-6H1zM8 4.988V3.867C8 2.285 6.653 1 5 1 3.346 1 2 2.285 2 3.867v1.12M5 9.988v2"/></g></symbol><symbol viewBox="0 0 220 40" id="icon-logo" xmlns="http://www.w3.org/2000/svg"><g fill-rule="evenodd"><path d="M102.943.554L95.237 39.18h8.752L111.695.554zm-86.485 0H7.706L0 39.18h8.752zm83.648 0h-8.752l-16.29 26.809L69.92.554h-8.752l7.406 38.626h8.054zm44.313 0h-28.564l-1.515 8.115h9.942l-6.095 30.511h8.752l6.083-30.511h9.894zm-94.132 0L45.19 26.112 31.798.554h-7.562L16.542 39.18h8.427l5.11-25.618L43.435 39.18h7.586L58.715.554zm114.941 0H149.18l-7.706 38.626h8.8l6.011-30.511h7.562a5.602 5.602 0 014.111 1.527 4.328 4.328 0 011.13 3.39c-.372 3.883-3.426 5.674-7.381 5.674h-6.384l8.223 19.92h8.752l-5.47-13.224a12.72 12.72 0 0011.096-12.563c.361-7.49-5.145-12.839-12.73-12.839"/><path d="M179.583 19.873c.665-11.24 10.031-19.981 21.29-19.872 11.65 0 19.512 8.836 18.875 19.86-.666 11.24-10.032 19.982-21.291 19.872-11.65 0-19.512-8.836-18.862-19.86m32.014 0a11.024 11.024 0 00-11.265-12.022c-6.748-.026-12.314 5.28-12.61 12.022a11.024 11.024 0 0011.264 12.022c6.753.032 12.326-5.275 12.623-12.022" fill-rule="nonzero"/></g></symbol><symbol viewBox="0 0 15 14" id="icon-mail" xmlns="http://www.w3.org/2000/svg"><defs><path id="bwa" d="M533.73 864.87a2.6 2.6 0 00-2.7-2.56h-.05c-1.66 0-2.58 1.3-2.58 2.78 0 1.66 1.11 2.7 2.57 2.7a2.7 2.7 0 002.77-2.6zm-2.75-3.99c1.1 0 2.15.49 2.91 1.26 0-.37.25-.65.6-.65h.08c.54 0 .65.51.65.67v5.71c-.04.38.39.57.62.33.92-.94 2.01-4.84-.57-7.1a6.19 6.19 0 00-7.36-.58 5.56 5.56 0 00-1.86 6.67c1.24 2.86 4.78 3.7 6.89 2.86 1.06-.43 1.55 1 .45 1.48-1.68.71-6.33.64-8.5-3.13a6.9 6.9 0 012.5-9.34 7.6 7.6 0 019.28 1.2c2.48 2.58 2.34 7.43-.08 9.31-1.1.86-2.72.03-2.71-1.22l-.01-.4a4.07 4.07 0 01-2.89 1.19 4.22 4.22 0 01-4.1-4.1c0-2.21 1.92-4.16 4.1-4.16z"/></defs><use xlink:href="#bwa" transform="translate(-524 -858)"/></symbol><symbol viewBox="0 0 24 21" id="icon-map-filter" xmlns="http://www.w3.org/2000/svg"><g stroke-width="2" fill-rule="evenodd" stroke-linejoin="round"><path d="M15 14.011A2.994 2.994 0 0112 17c-1.657 0-3-1.338-3-2.989a2.994 2.994 0 013-2.988c1.657 0 3 1.338 3 2.988zM12 .98V11m0 4.935V20M23 6.989A2.994 2.994 0 0020 4c-1.657 0-3 1.338-3 2.989a2.994 2.994 0 003 2.988c1.657 0 3-1.338 3-2.988zM20 20.02V10m0-4.935V1"/><g><path d="M7 6.989A2.994 2.994 0 004 4C2.343 4 1 5.338 1 6.989a2.994 2.994 0 003 2.988c1.657 0 3-1.338 3-2.988zM4 20.02V10m0-4.935V1"/></g></g></symbol><symbol viewBox="0 0 13 20" id="icon-ok" xmlns="http://www.w3.org/2000/svg"><defs><path id="bya" d="M312.54 868.84a7.2 7.2 0 01-3.84-1.37c-.14-.1-.28-.21-.4-.33-.49-.47-.54-1-.15-1.55.32-.47.88-.6 1.45-.33.11.05.22.12.32.19a6.3 6.3 0 006.98.06c.2-.16.42-.28.68-.35.5-.13.95.06 1.22.49.3.5.3.98-.07 1.36a5.64 5.64 0 01-2.03 1.31c-.73.28-1.52.43-2.31.52.12.13.17.2.25.27l3.2 3.21c.36.37.44.82.24 1.25-.22.46-.7.77-1.19.74-.3-.02-.54-.17-.75-.39-.8-.8-1.62-1.6-2.41-2.43-.23-.24-.34-.2-.54.02-.81.83-1.64 1.65-2.46 2.47-.38.36-.82.43-1.25.22a1.26 1.26 0 01-.73-1.16c.02-.32.17-.56.4-.78l3.16-3.17.23-.25z"/><path id="byb" d="M315.84 860.49a2.28 2.28 0 00-2.3-2.3 2.29 2.29 0 00-2.29 2.32 2.28 2.28 0 002.3 2.28 2.28 2.28 0 002.29-2.3zm-2.33 4.69a4.7 4.7 0 11.09-9.39 4.7 4.7 0 01-.09 9.39z"/></defs><use xlink:href="#bya" transform="translate(-307 -855)"/><use xlink:href="#byb" transform="translate(-307 -855)"/></symbol><symbol viewBox="0 0 18 18" id="icon-onlinereg" xmlns="http://www.w3.org/2000/svg"><path d="M1.42 5.259c.73.77 1.545 1.43 2.445 1.976.906.547 1.87.965 2.894 1.253 1.03.283 2.088.424 3.176.424a11.356 11.356 0 003.724-.636 11.28 11.28 0 003.291-1.8l-.503-.988a10.156 10.156 0 01-3.035 1.747c-1.112.4-2.27.603-3.477.61a10.38 10.38 0 01-4.447-.963 10.338 10.338 0 01-3.573-2.717L1.42 5.259zm-.944 5.038a14.769 14.769 0 003.75 2.338c1.36.577 2.762.947 4.21 1.112 1.452.165 2.9.118 4.34-.141a14.34 14.34 0 004.148-1.43l-.027-1.208a13.365 13.365 0 01-4.059 1.544 13.816 13.816 0 01-4.288.176 13.962 13.962 0 01-4.147-1.147A13.698 13.698 0 01.74 9.097l-.265 1.2zm10.192 6.935l.997-.44a14.05 14.05 0 01-1.897-3.777 13.683 13.683 0 01-.653-4.2c0-1.37.194-2.697.582-3.98.388-1.282.956-2.48 1.703-3.59L10.359.873a14.728 14.728 0 00-2.312 7.94c0 1.524.224 3 .67 4.43a14.772 14.772 0 001.95 3.988zm-5.815-.873l1.262.291a12.558 12.558 0 01-.68-2.188 11.788 11.788 0 01-.256-2.277 13.468 13.468 0 01.433-4.27 13.728 13.728 0 011.73-3.874 13.591 13.591 0 012.85-3.185L9.061.415a14.697 14.697 0 00-2.815 3.37A14.82 14.82 0 004.544 7.81a14.617 14.617 0 00-.432 4.394 13.224 13.224 0 00.74 4.156zm7.076-6.82a1.3 1.3 0 00.953-.398 1.34 1.34 0 00.397-.97 1.3 1.3 0 00-.397-.953 1.3 1.3 0 00-.953-.397 1.32 1.32 0 00-.97.397 1.3 1.3 0 00-.397.953c0 .376.132.7.397.97.264.265.588.397.97.397zm-6.758-.733c.376 0 .697-.135.961-.406.27-.27.406-.597.406-.98 0-.382-.135-.705-.406-.97a1.296 1.296 0 00-.961-.406c-.389 0-.718.135-.989.406a1.32 1.32 0 00-.397.97c0 .383.133.71.397.98.27.27.6.406.989.406zM9.3 14.638c.376 0 .697-.132.962-.397.27-.27.406-.597.406-.98 0-.382-.136-.705-.406-.97a1.296 1.296 0 00-.962-.406c-.388 0-.718.136-.988.406a1.32 1.32 0 00-.397.97A1.36 1.36 0 009.3 14.638zm6.565-.688l.714-.812a9.553 9.553 0 01-2.567-2.126 9.86 9.86 0 01-1.677-2.85 9.72 9.72 0 01-.617-3.3c-.006-.618.044-1.23.15-1.836a8.86 8.86 0 01.494-1.755L11.329.979a10.155 10.155 0 00-.52 1.906 11.08 11.08 0 00-.159 1.986 10.75 10.75 0 00.662 3.6 10.754 10.754 0 001.8 3.123 10.71 10.71 0 002.753 2.356zM9 18c1.23 0 2.385-.235 3.468-.706a9.185 9.185 0 002.876-1.95 9.215 9.215 0 001.95-2.867A8.665 8.665 0 0018 9c0-1.23-.235-2.385-.706-3.468a9.186 9.186 0 00-1.95-2.876 9.185 9.185 0 00-2.876-1.95A8.664 8.664 0 008.99 0C7.76 0 6.602.235 5.514.706a9.214 9.214 0 00-2.868 1.95 9.26 9.26 0 00-1.94 2.876A8.602 8.602 0 000 9c0 1.23.235 2.388.706 3.476a9.215 9.215 0 001.95 2.868c.83.83 1.785 1.48 2.868 1.95A8.664 8.664 0 009 18zm0-1.2a7.425 7.425 0 01-3.009-.618 7.923 7.923 0 01-2.488-1.685 8.049 8.049 0 01-1.694-2.488A7.517 7.517 0 011.2 9c0-1.065.203-2.068.609-3.009a8.125 8.125 0 011.685-2.488 7.922 7.922 0 012.488-1.685 7.424 7.424 0 013.01-.618c1.064 0 2.067.206 3.008.618.941.406 1.77.967 2.488 1.685a7.85 7.85 0 011.694 2.488A7.42 7.42 0 0116.8 9a7.425 7.425 0 01-.618 3.009 7.924 7.924 0 01-1.685 2.488 7.924 7.924 0 01-2.488 1.685A7.425 7.425 0 019 16.8z"/></symbol><symbol viewBox="0 0 46 58" id="icon-pdf" xmlns="http://www.w3.org/2000/svg"><g fill-rule="evenodd"><g stroke-width="2"><path d="M14.746 1L1 14.679V54a3 3 0 003 3h38a3 3 0 003-3V4a3 3 0 00-3-3H14.746z"/><path d="M14 2.414L2.414 14H14V2.414z"/></g><text font-family="PTSans-Bold, PT Sans" font-size="14" font-weight="bold"><tspan x="11" y="39">PDF</tspan></text></g></symbol><symbol viewBox="0 0 21 20" id="icon-print" xmlns="http://www.w3.org/2000/svg"><g fill-rule="evenodd"><path d="M20 16v-6a2 2 0 00-2-2H3a2 2 0 00-2 2v6h19z"/><path d="M5 13h11v6H5zm0-8.586V8h11V1H8.414L5 4.414z"/><path d="M9 0v5H4z"/></g></symbol><symbol viewBox="0 0 20 20" id="icon-search" xmlns="http://www.w3.org/2000/svg"><g stroke-width="2" fill-rule="evenodd"><path d="M9 17c4.411 0 8-3.589 8-8s-3.589-8-8-8-8 3.589-8 8 3.589 8 8 8zM19 19l-4-4"/></g></symbol><symbol viewBox="0 0 58 70" id="icon-service-home-car" xmlns="http://www.w3.org/2000/svg"><g stroke-width="2" fill-rule="evenodd"><path d="M47.99 61H11.01C7.69 61 5 58.35 5 55.079V40.932l5.15-15.535C11.02 22.775 13.5 21 16.301 21h26.396c2.8 0 5.283 1.775 6.153 4.397L54 40.932V55.08c0 3.269-2.692 5.92-6.01 5.92zM5 41h49M29.666 12h-.33C26.94 12 25 13.98 25 16.422V21h9v-4.578C34 13.98 32.06 12 29.666 12zM15.665 69h-.33C12.94 69 11 67.027 11 64.593V61h9v3.593C20 67.027 18.06 69 15.665 69zm27 0h-.33C39.94 69 38 67.027 38 64.593V61h9v3.593C47 67.027 45.06 69 42.665 69z"/><path d="M46 51c0 1.104-1.12 2-2.5 2s-2.5-.896-2.5-2c0-1.105 1.12-2 2.5-2s2.5.895 2.5 2zm-28 0c0 1.104-1.12 2-2.5 2s-2.5-.896-2.5-2c0-1.105 1.12-2 2.5-2s2.5.895 2.5 2zm35-9l4-4M5 42l-4-4M16 9l4 2m3-9l2 4m10-4l-2 5m10 2l-4 3"/></g></symbol><symbol viewBox="0 0 30 30" id="icon-social-ok" xmlns="http://www.w3.org/2000/svg"><path d="M22 15c-1 0-3 2-7 2s-6-2-7-2a2 2 0 00-2 2c0 1 .568 1.481 1 1.734C8.185 19.427 12 21 12 21l-4.25 5.438S7 27.373 7 28a2 2 0 002 2c1.021 0 1.484-.656 1.484-.656S14.993 23.993 15 24c.007-.007 4.516 5.344 4.516 5.344S19.979 30 21 30a2 2 0 002-2c0-.627-.75-1.562-.75-1.562L18 21s3.815-1.573 5-2.266c.432-.253 1-.734 1-1.734a2 2 0 00-2-2zM15 0a7 7 0 100 14 7 7 0 000-14zm0 10.5a3.5 3.5 0 11-.001-6.999A3.5 3.5 0 0115 10.5z"/></symbol><symbol viewBox="0 0 30 28" id="icon-star" xmlns="http://www.w3.org/2000/svg"><path d="M22.489 25.307l-1.43-8.338 6.058-5.906-8.373-1.217L15 2.26l-3.744 7.586-8.373 1.217 6.059 5.906-1.43 8.338L15 21.37l7.489 3.937z" fill-rule="evenodd"/></symbol><symbol viewBox="0 0 14 13" id="icon-star-active" xmlns="http://www.w3.org/2000/svg"><path d="M4.86 4.31L0 4.964l3.539 3.32L2.674 13 7 10.741l4.326 2.26-.864-4.716L14 4.965 9.142 4.31 7.002 0z" fill-rule="evenodd"/></symbol><symbol viewBox="0 0 14 13" id="icon-star-blue" xmlns="http://www.w3.org/2000/svg"><path d="M7 0L4.86 4.31 0 4.964l3.539 3.32L2.674 13 7 10.741l4.326 2.26-.864-4.716L14 4.965 9.142 4.31 7.002 0z" fill-rule="evenodd"/></symbol><symbol viewBox="0 0 14 13" id="icon-star-grey" xmlns="http://www.w3.org/2000/svg"><path d="M7 0L4.86 4.31 0 4.964l3.539 3.32L2.674 13 7 10.741l4.326 2.26-.864-4.716L14 4.965 9.142 4.31 7.002 0z" fill-rule="evenodd"/></symbol><symbol viewBox="0 0 21 19" id="icon-to-home" xmlns="http://www.w3.org/2000/svg"><defs><path id="cja" d="M240.53 154.57v6.9H227.5v-11.99"/><path id="cjb" d="M225.02 151.94l9-8.44 3.65 3.58"/><path id="cjc" d="M243.5 152.02h-2.03V154h-1.99v-1.98h-1.99v-2h2v-1.98h1.98v1.98h2.03zm-7.93-.96a4.97 4.97 0 109.93 0 4.97 4.97 0 00-9.93 0z"/><path id="cjd" d="M230 161h4v-5h-4z"/></defs><use fill-opacity="0" stroke-linecap="round" stroke-linejoin="round" stroke-miterlimit="50" xlink:href="#cja" transform="translate(-225 -143)"/><use fill-opacity="0" stroke-linecap="round" stroke-linejoin="round" stroke-miterlimit="50" xlink:href="#cjb" transform="translate(-225 -143)"/><use xlink:href="#cjc" transform="translate(-225 -143)"/><use xlink:href="#cjd" transform="translate(-225 -143)"/></symbol><symbol viewBox="0 0 512 512" id="icon-twitter" xmlns="http://www.w3.org/2000/svg"><path d="M492 109.5c-17.4 7.7-36 12.9-55.6 15.3 20-12 35.4-31 42.6-53.6-18.7 11.1-39.4 19.2-61.5 23.5C399.8 75.8 374.6 64 346.8 64c-53.5 0-96.8 43.4-96.8 96.9 0 7.6.8 15 2.5 22.1-80.5-4-151.9-42.6-199.6-101.3-8.3 14.3-13.1 31-13.1 48.7 0 33.6 17.1 63.3 43.1 80.7C67 210.7 52 206.3 39 199v1.2c0 47 33.4 86.1 77.7 95-8.1 2.2-16.7 3.4-25.5 3.4-6.2 0-12.3-.6-18.2-1.8 12.3 38.5 48.1 66.5 90.5 67.3-33.1 26-74.9 41.5-120.3 41.5-7.8 0-15.5-.5-23.1-1.4C62.9 432 113.8 448 168.4 448 346.6 448 444 300.3 444 172.2c0-4.2-.1-8.4-.3-12.5 18.9-13.7 35.3-30.8 48.3-50.2z"/></symbol><symbol viewBox="0 0 20 20" id="icon-usefull-build" xmlns="http://www.w3.org/2000/svg"><g fill-rule="evenodd"><path d="M3 6h2v10H3z"/><path d="M19 17H1v-2h18zm1 3H0v-2h20zM10 0l10 6H0z"/><path d="M7 6h2v10H7zm4 0h2v10h-2zm4 0h2v10h-2z"/></g></symbol><symbol viewBox="0 0 20 21" id="icon-usefull-i" xmlns="http://www.w3.org/2000/svg"><defs><path id="cma" d="M332 3361.2a10.03 10.03 0 01-13.83 9.19 9.94 9.94 0 010-18.38 10.03 10.03 0 0113.83 9.18zm-8-1h-3v6.96h3zm-.44-1.43a1.49 1.49 0 00-.48-2.43 1.5 1.5 0 00-1.64.32 1.49 1.49 0 001.06 2.55c.4 0 .78-.16 1.06-.44z"/></defs><use xlink:href="#cma" transform="translate(-312 -3351)"/></symbol><symbol viewBox="0 0 548.358 548.358" id="icon-vk" xmlns="http://www.w3.org/2000/svg"><path d="M545.451 400.298c-.664-1.431-1.283-2.618-1.858-3.569-9.514-17.135-27.695-38.167-54.532-63.102l-.567-.571-.284-.28-.287-.287h-.288c-12.18-11.611-19.893-19.418-23.123-23.415-5.91-7.614-7.234-15.321-4.004-23.13 2.282-5.9 10.854-18.36 25.696-37.397 7.807-10.089 13.99-18.175 18.556-24.267 32.931-43.78 47.208-71.756 42.828-83.939l-1.701-2.847c-1.143-1.714-4.093-3.282-8.846-4.712-4.764-1.427-10.853-1.663-18.278-.712l-82.224.568c-1.332-.472-3.234-.428-5.712.144l-3.713.859-1.431.715-1.136.859c-.952.568-1.999 1.567-3.142 2.995-1.137 1.423-2.088 3.093-2.848 4.996-8.952 23.031-19.13 44.444-30.553 64.238-7.043 11.803-13.511 22.032-19.418 30.693-5.899 8.658-10.848 15.037-14.842 19.126-4 4.093-7.61 7.372-10.852 9.849-3.237 2.478-5.708 3.525-7.419 3.142-1.715-.383-3.33-.763-4.859-1.143-2.663-1.714-4.805-4.045-6.42-6.995-1.622-2.95-2.714-6.663-3.285-11.136-.568-4.476-.904-8.326-1-11.563-.089-3.233-.048-7.806.145-13.706.198-5.903.287-9.897.287-11.991 0-7.234.141-15.085.424-23.555.288-8.47.521-15.181.716-20.125.194-4.949.284-10.185.284-15.705s-.336-9.849-1-12.991a44.442 44.442 0 00-2.99-9.137c-1.335-2.95-3.289-5.232-5.853-6.852-2.569-1.618-5.763-2.902-9.564-3.856-10.089-2.283-22.936-3.518-38.547-3.71-35.401-.38-58.148 1.906-68.236 6.855-3.997 2.091-7.614 4.948-10.848 8.562-3.427 4.189-3.905 6.475-1.431 6.851 11.422 1.711 19.508 5.804 24.267 12.275l1.715 3.429c1.334 2.474 2.666 6.854 3.999 13.134 1.331 6.28 2.19 13.227 2.568 20.837.95 13.897.95 25.793 0 35.689-.953 9.9-1.853 17.607-2.712 23.127-.859 5.52-2.143 9.993-3.855 13.418-1.715 3.426-2.856 5.52-3.428 6.28-.571.76-1.047 1.239-1.425 1.427a21.387 21.387 0 01-7.71 1.431c-2.667 0-5.901-1.334-9.707-4-3.805-2.666-7.754-6.328-11.847-10.992-4.093-4.665-8.709-11.184-13.85-19.558-5.137-8.374-10.467-18.271-15.987-29.691l-4.567-8.282c-2.855-5.328-6.755-13.086-11.704-23.267-4.952-10.185-9.329-20.037-13.134-29.554-1.521-3.997-3.806-7.04-6.851-9.134l-1.429-.859c-.95-.76-2.475-1.567-4.567-2.427a30.301 30.301 0 00-6.567-1.854l-78.229.568c-7.994 0-13.418 1.811-16.274 5.428l-1.143 1.711c-.571.953-.859 2.475-.859 4.57 0 2.094.571 4.664 1.714 7.707 11.42 26.84 23.839 52.725 37.257 77.659 13.418 24.934 25.078 45.019 34.973 60.237 9.897 15.229 19.985 29.602 30.264 43.112 10.279 13.515 17.083 22.176 20.412 25.981 3.333 3.812 5.951 6.662 7.854 8.565l7.139 6.851c4.568 4.569 11.276 10.041 20.127 16.416 8.853 6.379 18.654 12.659 29.408 18.85 10.756 6.181 23.269 11.225 37.546 15.126 14.275 3.905 28.169 5.472 41.684 4.716h32.834c6.659-.575 11.704-2.669 15.133-6.283l1.136-1.431c.764-1.136 1.479-2.901 2.139-5.276.668-2.379 1-5 1-7.851-.195-8.183.428-15.558 1.852-22.124 1.423-6.564 3.045-11.513 4.859-14.846 1.813-3.33 3.859-6.14 6.136-8.418 2.282-2.283 3.908-3.666 4.862-4.142.948-.479 1.705-.804 2.276-.999 4.568-1.522 9.944-.048 16.136 4.429 6.187 4.473 11.99 9.996 17.418 16.56 5.425 6.57 11.943 13.941 19.555 22.124 7.617 8.186 14.277 14.271 19.985 18.274l5.708 3.426c3.812 2.286 8.761 4.38 14.853 6.283 6.081 1.902 11.409 2.378 15.984 1.427l73.087-1.14c7.229 0 12.854-1.197 16.844-3.572 3.998-2.379 6.373-5 7.139-7.851.764-2.854.805-6.092.145-9.712-.677-3.611-1.344-6.136-2.008-7.563z"/></symbol><symbol viewBox="0 0 20 20" id="icon-work-day" xmlns="http://www.w3.org/2000/svg"><g fill-rule="evenodd"><path d="M0 20h20V2H0v18zm1-1h18V3H1v16z"/><path d="M4 5h1.001V.001H4zm11 0h1V.001h-1zM4.5 10.5l4 4 7-6"/></g></symbol><symbol viewBox="0 0 40 40" id="icon-write-circle" xmlns="http://www.w3.org/2000/svg"><defs><path d="M20 40C8.972 40 0 31.028 0 20S8.972 0 20 0s20 8.972 20 20-8.972 20-20 20zm0-38C10.075 2 2 10.075 2 20s8.075 18 18 18 18-8.075 18-18S29.925 2 20 2z" id="cpa"/></defs><g fill-rule="evenodd"><use xlink:href="#cpa"/><use xlink:href="#cpa"/><g stroke-width="2"><path d="M26.006 21.951v5.023H14V14h4.026"/><path d="M25.595 12.445l2.979 2.902-8.053 7.718H17.53V20.13zM22.914 14.746l3.271 3.27"/></g></g></symbol><symbol viewBox="0 0 60 60" id="icon-youtube" xmlns="http://www.w3.org/2000/svg"><path d="M48.792 22.762s-.375-2.643-1.525-3.807c-1.458-1.527-3.093-1.534-3.842-1.624-5.367-.388-13.416-.388-13.416-.388h-.018s-8.049 0-13.416.388c-.749.09-2.383.097-3.842 1.624-1.15 1.164-1.524 3.807-1.524 3.807s-.383 3.103-.383 6.206v2.91c0 3.103.383 6.206.383 6.206s.374 2.643 1.524 3.807c1.459 1.527 3.375 1.478 4.229 1.638 3.068.295 13.038.386 13.038.386s8.058-.012 13.425-.4c.749-.09 2.384-.097 3.842-1.624 1.15-1.164 1.525-3.807 1.525-3.807s.382-3.103.382-6.206v-2.91c0-3.103-.382-6.206-.382-6.206zm-22.75 12.641l-.003-10.775 10.362 5.406-10.36 5.369z" fill-rule="evenodd"/></symbol><symbol viewBox="0 0 15 15" id="icon_cart" xmlns="http://www.w3.org/2000/svg"><path fill-rule="evenodd" clip-rule="evenodd" d="M.167 1.667c0-.46.373-.834.833-.834h1.833c.366 0 .69.239.797.589l.845 2.745h9.692a.833.833 0 01.745 1.206l-2.667 5.333a.833.833 0 01-.745.46h-6a.833.833 0 01-.796-.588L2.218 2.5H1a.833.833 0 01-.833-.833zm4.82 4.166L6.116 9.5h4.87l1.832-3.667h-7.83z"/><path d="M5.917 13a1.083 1.083 0 11-2.167 0 1.083 1.083 0 012.167 0zm4.916 1.083a1.083 1.083 0 100-2.166 1.083 1.083 0 000 2.166z"/></symbol><symbol viewBox="0 0 55 65" id="investors-reason-1" xmlns="http://www.w3.org/2000/svg"><g stroke-width="2" fill-rule="evenodd"><path d="M39.151 12.987c0 9.439-5.366 21.07-11.987 21.07-6.62 0-11.987-12.412-11.987-21.07C15.178 6.366 20.544 1 27.166 1c6.62 0 11.986 5.366 11.986 11.987z"/><path d="M21.179 30.818c0 5.548-4.498 9.471-10.045 9.471h-.327C5.326 40.29 1 45.99 1 52.497v12.377m52.329.001V52.497c0-3.915-2.763-12.208-10.132-12.208-5.55 0-10.046-3.922-10.046-9.47"/><path d="M10.577 56.698H7.725V53.19a4.928 4.928 0 019.856 0v3.508h-2.765m-2.75-16.408s1.938 3.832.586 7.973m33.114 3.901a3.148 3.148 0 11-6.297 0 3.148 3.148 0 016.297 0zm-3.85-11.721c.873 1.925 1.67 5.588.925 8.582M15.309 14.057c8.184 0 15.423-3.62 18.098-5.508 0 0 1.784 4.301 5.613 6.19m-.682 24.131L27.322 50.122l-10.44-10.78"/></g></symbol><symbol viewBox="0 0 62 62" id="investors-reason-2" xmlns="http://www.w3.org/2000/svg"><path d="M22 12h17v36.5a8.5 8.5 0 11-17 0V12zm0 14.5h17M45 6H16h29zm9.414-5L61 7.586V1h-6.586zM61 54.414L54.414 61H61v-6.586zM6.755 61L1 54.606V61h5.755zM1 7.394L6.755 1H1v6.394z" stroke-width="2" fill-rule="evenodd"/></symbol><symbol viewBox="0 0 49 53" id="investors-reason-3" xmlns="http://www.w3.org/2000/svg"><g stroke-width="2" fill-rule="evenodd" stroke-linecap="round" stroke-linejoin="round"><path d="M31.31 8.072c0 3.906-6.786 7.072-15.156 7.072C7.785 15.144 1 11.978 1 8.072S7.785 1 16.154 1c8.37 0 15.155 3.166 15.155 7.072z"/><path d="M31.31 14.134c0 3.906-6.786 7.072-15.156 7.072C7.785 21.206 1 18.04 1 14.134"/><path d="M31.31 20.196c0 3.906-6.786 7.072-15.156 7.072C7.785 27.268 1 24.102 1 20.196m16.364 13.112c-.399.015-.802.022-1.209.022C7.785 33.33 1 30.164 1 26.258M17.364 39.37c-.399.015-.802.022-1.209.022C7.785 39.392 1 36.226 1 32.32"/><path d="M47.474 32.32c0 3.906-6.784 7.072-15.154 7.072-8.37 0-15.155-3.166-15.155-7.072s6.786-7.072 15.154-7.072c8.37 0 15.155 3.166 15.155 7.072z"/><path d="M47.474 38.381c0 3.906-6.784 7.072-15.154 7.072-8.37 0-15.155-3.166-15.155-7.072"/><path d="M47.474 44.443c0 3.906-6.784 7.072-15.154 7.072-8.37 0-15.155-3.166-15.155-7.072"/></g></symbol><symbol viewBox="0 0 54 62" id="investors-reason-4" xmlns="http://www.w3.org/2000/svg"><g fill-rule="evenodd"><path d="M53 49V8a7 7 0 00-7-7H8a7 7 0 00-7 7v41"/><path d="M8 42a7 7 0 000 14h38a7 7 0 007-7M8 42h38a7 7 0 007-7V8a7 7 0 00-7-7H8a7 7 0 00-7 7"/><path d="M8 49h38a7 7 0 007-7M38 19h-6v-6h-6v6h-6v6h6v6h6v-6h6z"/><path fill-rule="nonzero" d="M7 1h2v42H7zM25 49h-8v10l4-3.75L25 59z"/></g></symbol><symbol viewBox="0 0 59 59" id="investors-reason-5" xmlns="http://www.w3.org/2000/svg"><g stroke-width="2" fill-rule="evenodd"><path d="M29.125 57.25c15.533 0 28.125-12.592 28.125-28.125S44.658 1 29.125 1 1 13.592 1 29.125 13.592 57.25 29.125 57.25z"/><path d="M29.125 31.818a2.693 2.693 0 100-5.387 2.693 2.693 0 000 5.387zm0-25.603c-10.622 0-19.564 7.162-22.28 16.918 5.275-2.827 13.19-4.626 22.042-4.626 9.176 0 17.342 1.934 22.607 4.94C48.886 13.53 39.861 6.216 29.125 6.216zm4.206 42.755c0 1.047.11 2.07.291 3.066 9.731-1.919 17.265-9.939 18.461-19.91a17.17 17.17 0 00-1.81-.098c-9.357 0-16.942 7.585-16.942 16.942zM7.976 32.027c-.612 0-1.214.036-1.81.1 1.196 9.971 8.73 17.99 18.461 19.908.182-.995.291-2.017.291-3.066 0-9.357-7.585-16.942-16.942-16.942z"/></g></symbol><symbol viewBox="0 0 42 60" id="investors-reason-6" xmlns="http://www.w3.org/2000/svg"><defs><path id="cxa" d="M18 54h38v2H18z"/></defs><g transform="translate(-16 -8)" fill-rule="evenodd"><path d="M30 15h14v22H30z"/><rect x="25" y="9" width="24" height="6" rx="3"/><circle cx="37" cy="47" r="20"/><path d="M46 45a2 2 0 11-4 0 2 2 0 014 0zm-6-8a2 2 0 11-4 0 2 2 0 014 0z"/><use xlink:href="#cxa"/><path d="M19 55h36v1H19z"/></g></symbol><symbol viewBox="0 0 12 13" id="link" xmlns="http://www.w3.org/2000/svg"/><symbol id="lk-cart" viewBox="0 0 16.9 15" xmlns="http://www.w3.org/2000/svg"><style>.czst0{fill:none;stroke:#fff;stroke-width:2;stroke-miterlimit:10}.czst1{fill:#fff}</style><path class="czst0" d="M-1.1-1h2.5l4 8.4.4.8.9-.2 7.4-2 .8-.2V2H3.2" transform="translate(1.061 2)"/><path class="czst1" d="M4.2 13c1.1 0 2.1-.9 2.1-2s-1-2-2.1-2-2.1.9-2.1 2c.1 1.1 1 2 2.1 2m8.5 0c1.1 0 2.1-.9 2.1-2s-1-2-2.1-2-2.1.9-2.1 2 1 2 2.1 2" transform="translate(1.061 2)"/></symbol><symbol viewBox="0 0 17.414 12.801" id="lk-check" xmlns="http://www.w3.org/2000/svg"><defs><style>.daa{fill:none;stroke:#ff6a13;stroke-miterlimit:10;stroke-width:2px}</style></defs><path class="daa" d="M.707 6.066l5.321 5.321L16.707.707"/></symbol><symbol viewBox="0 0 18 18" id="lk-download-b" xmlns="http://www.w3.org/2000/svg"><defs><style>.dba{fill:#1797b1}.dbb{fill:none;stroke:#1797b1;stroke-miterlimit:10;stroke-width:2px}</style></defs><path class="dba" d="M0 16h18v2H0zM8 0h2v12H8z"/><path class="dbb" d="M4 8l5 5 5-5"/></symbol><symbol viewBox="0 0 18 14" id="lk-mail" xmlns="http://www.w3.org/2000/svg"><defs><style>.dcdca,.dcdcb,.dcd{fill:none}.dca,.dcb{stroke:#1797b1;stroke-miterlimit:10;stroke-width:2px}.dcb{stroke-linecap:round;stroke-linejoin:round}.dcc{stroke:none}</style></defs><g class="dca"><path class="dcc" d="M0 0h18v14H0z"/><path class="dcd" d="M1 1h16v12H1z"/></g><path class="dcb" d="M1 2l8 6 8-6"/></symbol><symbol viewBox="0 0 20 21" id="lk-plus" xmlns="http://www.w3.org/2000/svg"><defs><style>.dda{fill:none;stroke:#13353f;stroke-miterlimit:10;stroke-width:2px}</style></defs><path class="dda" d="M10 0v21m10-10.503H0"/></symbol><symbol viewBox="0 0 9 12" id="main-slider-arrow-left" xmlns="http://www.w3.org/2000/svg"><defs><path id="dea" d="M86.56 677.98l5.58-4.69-5.58-4.69"/></defs><use fill-opacity="0" stroke-linecap="round" stroke-miterlimit="50" stroke-width="2" xlink:href="#dea" transform="translate(-84 -667)"/></symbol><symbol viewBox="0 0 9 12" id="main-slider-arrow-right" xmlns="http://www.w3.org/2000/svg"><defs><path id="dfa" d="M138.56 677.98l5.58-4.69-5.58-4.69"/></defs><use fill-opacity="0" stroke-linecap="round" stroke-miterlimit="50" stroke-width="2" xlink:href="#dfa" transform="translate(-137 -667)"/></symbol><symbol viewBox="0 0 25 23" id="map-filter-city" xmlns="http://www.w3.org/2000/svg"><g fill-rule="evenodd"><path d="M1 10h10v12H1z"/><path d="M4 15h4v2H4zM11 1v21h13V1H11z"/><path d="M14 10h7v2h-7zm0-4h7v2h-7zm0 8h7v2h-7z"/></g></symbol><symbol viewBox="0 0 26 23" id="map-filter-subway" xmlns="http://www.w3.org/2000/svg"><defs><path id="dha" d="M592 879a13.02 13.02 0 00-9.69 21.67l.56.62h18.26l.56-.62A13.02 13.02 0 00592 879z"/><path id="dhb" d="M592.31 888.45l-3.33-4.45-3.98 10.6 3.48 1.3 1.6-4.25 2.23 2.99 2.24-2.99 1.6 4.26 3.47-1.3-3.98-10.61z"/></defs><use fill-opacity="0" stroke-miterlimit="50" stroke-width="2" xlink:href="#dha" transform="translate(-579 -879)"/><use xlink:href="#dhb" transform="translate(-579 -879)"/></symbol><symbol viewBox="0 0 59 64" id="medoffice-center-icon-1" xmlns="http://www.w3.org/2000/svg"><defs><path id="dia" d="M0 63.167h58.584V0H0z"/></defs><g fill-rule="evenodd"><path d="M57.584 29.292c0 15.625-12.667 28.292-28.292 28.292C13.667 57.584 1 44.917 1 29.292 1 13.667 13.667 1 29.29 1c15.626 0 28.293 12.667 28.293 28.292z"/><path d="M50.092 29.292c0 11.487-9.313 20.8-20.8 20.8-11.488 0-20.8-9.313-20.8-20.8 0-11.488 9.312-20.8 20.8-20.8 11.487 0 20.8 9.312 20.8 20.8z"/><path d="M35.638 29.292a6.346 6.346 0 11-12.692 0 6.346 6.346 0 0112.692 0z"/><mask id="dib"><use xlink:href="#dia"/></mask><path mask="url(#dib)" d="M19.773 62.167h19.038V35.902H19.773z"/><path mask="url(#dib)" d="M19.773 62.167h19.038V35.902H19.773zM16.402 35.902h26.176"/><path d="M47.954 50.709v4.495a6.963 6.963 0 01-6.962 6.963h-23.4a6.963 6.963 0 01-6.963-6.963v-4.495M.604 29.5h7.667m42.084 0h7.667M29.021 8.416v-7" mask="url(#dib)"/></g></symbol><symbol viewBox="0 0 59 59" id="medoffice-center-icon-2" xmlns="http://www.w3.org/2000/svg"><g stroke-width="2" fill-rule="evenodd"><path d="M16.87 44.497l24.15-30.733m3.51 24.737a5.996 5.996 0 11-11.992 0 5.996 5.996 0 0111.992 0zM25.722 19.76a5.997 5.997 0 11-11.993-.002 5.997 5.997 0 0111.993.002z"/><path d="M57.26 29.13c0 15.536-12.593 28.13-28.13 28.13C13.596 57.26 1 44.666 1 29.13S13.595 1 29.13 1c15.537 0 28.13 12.594 28.13 28.13z"/></g></symbol><symbol viewBox="0 0 55 65" id="medoffice-center-icon-3" xmlns="http://www.w3.org/2000/svg"><g stroke-width="2" fill-rule="evenodd"><path d="M39.151 12.987c0 9.439-5.366 21.07-11.987 21.07-6.62 0-11.987-12.412-11.987-21.07C15.178 6.366 20.544 1 27.166 1c6.62 0 11.986 5.366 11.986 11.987z"/><path d="M21.179 30.818c0 5.548-4.498 9.471-10.045 9.471h-.327C5.326 40.29 1 45.99 1 52.497v12.377m52.329.001V52.497c0-3.915-2.763-12.208-10.132-12.208-5.55 0-10.046-3.922-10.046-9.47"/><path d="M10.577 56.698H7.725V53.19a4.928 4.928 0 019.856 0v3.508h-2.765m-2.75-16.408s1.938 3.832.586 7.973m33.114 3.901a3.148 3.148 0 11-6.297 0 3.148 3.148 0 016.297 0zm-3.85-11.721c.873 1.925 1.67 5.588.925 8.582M15.309 14.057c8.184 0 15.423-3.62 18.098-5.508 0 0 1.784 4.301 5.613 6.19m-.682 24.131L27.322 50.122l-10.44-10.78"/></g></symbol><symbol viewBox="0 0 49 53" id="medoffice-center-icon-4" xmlns="http://www.w3.org/2000/svg"><g stroke-width="2" fill-rule="evenodd" stroke-linecap="round" stroke-linejoin="round"><path d="M31.31 8.072c0 3.906-6.786 7.072-15.156 7.072C7.785 15.144 1 11.978 1 8.072S7.785 1 16.154 1c8.37 0 15.155 3.166 15.155 7.072z"/><path d="M31.31 14.134c0 3.906-6.786 7.072-15.156 7.072C7.785 21.206 1 18.04 1 14.134"/><path d="M31.31 20.196c0 3.906-6.786 7.072-15.156 7.072C7.785 27.268 1 24.102 1 20.196m16.364 13.112c-.399.015-.802.022-1.209.022C7.785 33.33 1 30.164 1 26.258M17.364 39.37c-.399.015-.802.022-1.209.022C7.785 39.392 1 36.226 1 32.32"/><path d="M47.474 32.32c0 3.906-6.784 7.072-15.154 7.072-8.37 0-15.155-3.166-15.155-7.072s6.786-7.072 15.154-7.072c8.37 0 15.155 3.166 15.155 7.072z"/><path d="M47.474 38.381c0 3.906-6.784 7.072-15.154 7.072-8.37 0-15.155-3.166-15.155-7.072"/><path d="M47.474 44.443c0 3.906-6.784 7.072-15.154 7.072-8.37 0-15.155-3.166-15.155-7.072"/></g></symbol><symbol viewBox="0 0 14 18" id="phone" xmlns="http://www.w3.org/2000/svg"><path d="M6.085 5.42c.519-.282.642-.853.297-1.424l-1.457-2.4C4.58 1.032 4 .848 3.481 1.131a9.601 9.601 0 00-2.265 1.73.606.606 0 00-.159.342 13.205 13.205 0 001.893 8.125c1.554 2.557 3.84 4.465 6.464 5.62a.658.658 0 00.387.039 10.25 10.25 0 002.707-.997c.519-.282.643-.852.298-1.423l-1.465-2.4c-.345-.564-.925-.747-1.443-.465L7.84 12.83a11.273 11.273 0 01-2.46-2.84 10.78 10.78 0 01-1.36-3.442L6.085 5.42z" fill-rule="evenodd"/></symbol><symbol viewBox="0 0 14 17" id="pin" xmlns="http://www.w3.org/2000/svg"><g transform="translate(1 1)" fill-rule="evenodd"><path d="M6 16c4-4.823 6-8.274 6-10.353C12 2.528 9.314 0 6 0S0 2.528 0 5.647C0 7.727 2 11.177 6 16z"/><circle cx="6" cy="6" r="2"/></g></symbol><symbol viewBox="0 0 18 18" id="results" xmlns="http://www.w3.org/2000/svg"><path d="M6.597 9c0-.345.28-.625.625-.625h6.146a.625.625 0 110 1.25H7.222A.625.625 0 016.597 9zm.625 2.709a.625.625 0 100 1.25h6.146a.625.625 0 000-1.25H7.222zm-.625-6.042c0-.345.28-.625.625-.625h6.146a.625.625 0 110 1.25H7.222a.625.625 0 01-.625-.625zM4.41 8.375a.625.625 0 100 1.25h.104a.625.625 0 000-1.25H4.41zm-.625 3.959c0-.345.28-.625.625-.625h.104a.625.625 0 110 1.25H4.41a.625.625 0 01-.625-.625zm.625-7.292a.625.625 0 100 1.25h.104a.625.625 0 100-1.25H4.41z"/><path fill-rule="evenodd" clip-rule="evenodd" d="M.764 2.75A2.708 2.708 0 013.472.042h10.834a2.708 2.708 0 012.708 2.708v12.5a2.708 2.708 0 01-2.708 2.709H3.472A2.708 2.708 0 01.764 15.25V2.75zm2.708-1.458c-.805 0-1.458.653-1.458 1.458v12.5c0 .806.653 1.459 1.458 1.459h10.834c.805 0 1.458-.653 1.458-1.459V2.75c0-.805-.653-1.458-1.458-1.458H3.472z"/></symbol><symbol viewBox="0 0 19 18" id="search" xmlns="http://www.w3.org/2000/svg"><path fill-rule="evenodd" clip-rule="evenodd" d="M7.815.042a6.875 6.875 0 104.4 12.158l4.741 4.742a.625.625 0 00.884-.884l-4.742-4.742A6.875 6.875 0 007.815.042zM2.19 6.917a5.625 5.625 0 1111.25 0 5.625 5.625 0 01-11.25 0z"/></symbol><symbol viewBox="0 0 22 20" id="slide-arrow-left" xmlns="http://www.w3.org/2000/svg"><g fill-rule="evenodd"><path d="M2.001 11h20V9h-20z"/><path d="M10 0L0 10l10 10 1.415-1.414L2.829 10l8.586-8.586z"/></g></symbol><symbol viewBox="0 0 22 20" id="slide-arrow-right" xmlns="http://www.w3.org/2000/svg"><g fill-rule="evenodd"><path d="M0 11h20V9H0z"/><path d="M12 0l-1.414 1.414L19.172 10l-8.586 8.586L12 20l10-10z"/></g></symbol><symbol viewBox="0 0 20 24" id="timer" xmlns="http://www.w3.org/2000/svg"><g transform="translate(1)" fill-rule="evenodd"><circle cx="9" cy="14" r="9"/><rect x="8" y="8" width="2" height="7" rx="1"/><rect transform="rotate(90 10.475 14.475)" x="9.475" y="11.975" width="2" height="5" rx="1"/><g transform="rotate(30 4.768 28.758)"><path d="M1.866 1.5h2v4h-2z"/><rect x=".866" y=".5" width="4" height="2" rx="1"/></g><g transform="translate(7)"><path d="M1 1h2v4H1z"/><rect width="4" height="2" rx="1"/></g></g></symbol><symbol viewBox="0 0 18 18" id="tooltip" xmlns="http://www.w3.org/2000/svg"><g fill-rule="evenodd" transform="translate(1 1)"><circle cx="8" cy="8" r="8"/><path d="M7.408 9.504c-.04-.416-.02-.77.06-1.062.08-.292.19-.544.33-.756.14-.212.3-.396.48-.552.18-.156.348-.306.504-.45.156-.144.286-.294.39-.45a.982.982 0 00.156-.558c0-.28-.078-.504-.234-.672-.156-.168-.434-.252-.834-.252-.128 0-.264.014-.408.042a2.902 2.902 0 00-.432.12 3.495 3.495 0 00-.768.39l-.6-1.152c.304-.208.654-.38 1.05-.516s.874-.204 1.434-.204c.752 0 1.34.182 1.764.546.424.364.636.854.636 1.47 0 .408-.054.746-.162 1.014a2.47 2.47 0 01-.402.684c-.16.188-.336.354-.528.498a4.548 4.548 0 00-.528.462c-.16.164-.296.354-.408.57-.112.216-.168.492-.168.828H7.408zm-.24 1.704c0-.28.088-.502.264-.666.176-.164.408-.246.696-.246.304 0 .544.082.72.246.176.164.264.386.264.666s-.088.504-.264.672c-.176.168-.416.252-.72.252-.288 0-.52-.084-.696-.252-.176-.168-.264-.392-.264-.672z"/></g></symbol><symbol viewBox="0 0 512 512" id="yandex" xmlns="http://www.w3.org/2000/svg"><path d="M313.475 105.366h-45.648c-44.854 0-82.892 34.142-82.892 100.427 0 39.765 18.42 69.084 51.25 83.547l-61.262 110.869c-2.005 3.619 0 6.426 3.202 6.426h28.433c2.4 0 4.01-.801 4.81-2.807l55.659-108.863h20.021v108.863c0 1.197 1.197 2.807 2.799 2.807h24.832c2.4 0 3.203-1.205 3.203-3.205V109.383c-.001-2.812-1.603-4.017-4.407-4.017zM287.047 269.26h-16.818c-26.427 0-52.053-19.281-52.053-67.483 0-50.22 24.024-70.705 48.448-70.705h20.424V269.26z"/></symbol></svg>